Coordinates
version=1
nRows=29
nColumns=24
inDegrees=yes

Units are S.I. units (second, meters, Newtons, ...)
Angles are in degrees.

endheader
time	pelvis_tilt	pelvis_list	pelvis_rotation	pelvis_tx	pelvis_ty	pelvis_tz	hip_flexion_r	hip_adduction_r	hip_rotation_r	knee_angle_r	ankle_angle_r	subtalar_angle_r	mtp_angle_r	hip_flexion_l	hip_adduction_l	hip_rotation_l	knee_angle_l	ankle_angle_l	subtalar_angle_l	mtp_angle_l	lumbar_extension	lumbar_bending	lumbar_rotation
      4.07500000	    -10.23687282	      6.65281543	     -4.09798578	     -0.62101006	     -0.01944789	     -0.24800229	     25.99162559	     -9.61349079	     -3.90458479	    -61.60143060	    -10.13107320	      0.35578005	     21.03988321	     16.70571286	     11.38717548	      7.05751111	    -17.29295977	      7.17813542	      0.89696369	    -12.68849247	     12.44401953	     -8.23346939	     -0.69766249
      4.08000000	    -10.22829067	      6.20847370	     -3.82801319	     -0.61456526	     -0.01849883	     -0.24862586	     26.56680211	     -9.23506378	     -4.40507965	    -60.98257009	     -9.53435131	      0.49753219	     21.03934658	     15.88514127	     11.10124411	      7.82379798	    -16.81577630	      7.32964841	      0.46745244	    -13.12328756	     12.30479216	     -7.80330113	     -1.16067053
      4.08500000	    -10.19795175	      5.78338586	     -3.59890401	     -0.60813625	     -0.01760796	     -0.24920919	     27.12086761	     -8.86652936	     -4.87695396	    -60.31085536	     -8.94833314	      0.67805502	     20.96015355	     15.04389612	     10.82665233	      8.61752104	    -16.33766089	      7.51398106	     -0.08867852	    -13.86910006	     12.15367465	     -7.38011059	     -1.55792450
      4.09000000	    -10.24634200	      5.32235771	     -3.26914734	     -0.60178328	     -0.01690191	     -0.24986061	     27.71859243	     -8.50359622	     -5.45142843	    -59.56832408	     -8.39390029	      0.90524815	     20.99624377	     14.35759435	     10.49117869	      9.24872229	    -15.96444639	      7.74745005	     -0.26511341	    -14.15563553	     12.07014969	     -6.94406771	     -2.08254277
      4.09500000	    -10.21831042	      4.90556640	     -2.99300969	     -0.59539209	     -0.01619860	     -0.25045050	     28.23491083	     -8.17852325	     -5.99461292	    -58.77558468	     -7.84256084	      1.13003118	     20.89598679	     13.54836000	     10.20290186	     10.03475438	    -15.52071045	      7.97040498	     -0.73184438	    -14.84106937	     11.92275617	     -6.54626204	     -2.48149129
      4.10000000	    -10.23164690	      4.49885707	     -2.69182299	     -0.58906141	     -0.01564488	     -0.25102021	     28.78208302	     -7.86080145	     -6.52705948	    -57.92894949	     -7.29505452	      1.38454267	     20.80482085	     12.82713295	      9.89833187	     10.68443811	    -15.13115148	      8.25010147	     -0.98272401	    -15.39240623	     11.81738473	     -6.16970804	     -2.95619060
      4.10500000	    -10.29970187	      4.11112060	     -2.36737612	     -0.58276870	     -0.01525008	     -0.25158968	     29.37571426	     -7.57513561	     -7.07126133	    -57.02476194	     -6.77566221	      1.67730143	     20.82010575	     12.20830104	      9.58677617	     11.14380661	    -14.77753137	      8.48546388	     -1.04068357	    -15.56550727	     11.77344315	     -5.81886506	     -3.45546618
      4.11000000	    -10.31305410	      3.75851147	     -2.03437674	     -0.57647977	     -0.01489929	     -0.25214588	     29.89430678	     -7.32967967	     -7.60493391	    -56.06756599	     -6.24901851	      1.93778536	     20.75281313	     11.50824823	      9.30732499	     11.71317214	    -14.37900843	      8.71307927	     -1.17672503	    -15.81786000	     11.67544483	     -5.50803495	     -3.93992625
      4.11500000	    -10.34585223	      3.43753951	     -1.73493162	     -0.57018341	     -0.01466703	     -0.25261980	     30.42972527	     -7.09590331	     -8.09278949	    -55.05912163	     -5.72833654	      2.22027928	     20.67420610	     10.83810336	      9.03504126	     12.17137456	    -13.97525574	      8.93525028	     -1.27772157	    -16.02201966	     11.60969311	     -5.23170913	     -4.36100859
      4.12000000	    -10.31072179	      3.17012497	     -1.44280381	     -0.56389040	     -0.01448001	     -0.25301973	     30.88436690	     -6.90027516	     -8.53245160	    -54.02002443	     -5.13812764	      2.50002753	     20.36659641	     10.06709332	      8.80951784	     12.75193599	    -13.52657763	      9.19149956	     -1.46947460	    -16.45140348	     11.47458583	     -5.02265852	     -4.76668280
      4.12500000	    -10.38783947	      2.91526886	     -1.12692102	     -0.55763017	     -0.01450586	     -0.25343689	     31.44341162	     -6.73200875	     -8.98434451	    -52.91073335	     -4.61257907	      2.80144352	     20.32978854	      9.47525352	      8.57390189	     13.06689832	    -13.14357177	      9.43754580	     -1.38412399	    -16.49230402	     11.46592082	     -4.82517187	     -5.18666546
      4.13000000	    -10.39414967	      2.69298588	     -0.80889773	     -0.55139614	     -0.01456469	     -0.25379615	     31.91089852	     -6.58400251	     -9.39602687	    -51.75589464	     -4.05379133	      3.07234862	     20.17806477	      8.78871717	      8.36138679	     13.46704152	    -12.72400102	      9.68587089	     -1.34300007	    -16.56623517	     11.37419988	     -4.67594635	     -5.62384340
      4.13500000	    -10.43104052	      2.49026656	     -0.52040285	     -0.54512071	     -0.01471433	     -0.25411150	     32.39051662	     -6.43818215	     -9.77045555	    -50.52956581	     -3.50699453	      3.37290267	     20.03304094	      8.14170086	      8.15511436	     13.76142821	    -12.30461884	      9.90104611	     -1.29711694	    -16.61018189	     11.33258686	     -4.53571885	     -5.98255725
      4.14000000	    -10.53054045	      2.33765485	     -0.34799954	     -0.53888738	     -0.01506584	     -0.25419515	     32.96302911	     -6.24022264	     -9.94092032	    -49.26361168	     -3.01115169	      3.61284175	     19.97841767	      7.56522341	      7.96688518	     13.94861740	    -11.87330508	     10.14142609	     -1.24664000	    -16.58695262	     11.36999150	     -4.43783911	     -6.24236980
      4.14500000	    -10.48494112	      2.15624552	      0.02215662	     -0.53262284	     -0.01530253	     -0.25460746	     33.29303830	     -6.18420071	    -10.42710875	    -47.93607800	     -2.38471121	      3.99396696	     19.71654209	      6.83048965	      7.78386407	     14.27575813	    -11.44875386	     10.37650338	     -1.16298883	    -16.60934431	     11.22480480	     -4.33666433	     -6.70359068
      4.15000000	    -10.47214350	      2.01729025	      0.27320376	     -0.52641823	     -0.01564200	     -0.25472317	     33.67095385	     -6.04466071	    -10.66620984	    -46.55732713	     -1.75769451	      4.36904067	     19.33109127	      6.13438798	      7.60803985	     14.52380436	    -11.01641639	     10.59751721	     -1.10901790	    -16.66155456	     11.11687179	     -4.28041377	     -7.04726720
      4.15500000	    -10.60197257	      1.90915526	      0.41890650	     -0.52021612	     -0.01621424	     -0.25474654	     34.21000950	     -5.86121037	    -10.74486320	    -45.10431167	     -1.26841866	      4.67223015	     19.23946474	      5.61061858	      7.45461817	     14.59175051	    -10.60189182	     10.80625296	     -1.05674108	    -16.64505690	     11.18492673	     -4.21471094	     -7.22553648
      4.16000000	    -10.54264987	      1.78231012	      0.69981015	     -0.51400985	     -0.01662889	     -0.25490363	     34.47855389	     -5.76940863	    -11.04044633	    -43.61197941	     -0.60834066	      5.17912637	     18.83762739	      4.87648889	      7.28666135	     14.76802455	    -10.18404727	     11.06641738	     -0.90660481	    -16.66075733	     11.02347888	     -4.17565709	     -7.60951315
      4.16500000	    -10.55683266	      1.67019020	      0.86848509	     -0.50781019	     -0.01718183	     -0.25490041	     34.82358116	     -5.59858340	    -11.15965379	    -42.05715132	      0.02961387	      5.68263616	     18.38180721	      4.22980949	      7.12074809	     14.81173618	     -9.77255942	     11.32250815	     -0.79986044	    -16.70342035	     10.95100906	     -4.12166287	     -7.84514979
      4.17000000	    -10.60311987	      1.57210818	      1.01789149	     -0.50164127	     -0.01781289	     -0.25487260	     35.18415288	     -5.42521192	    -11.22424345	    -40.44038118	      0.61570963	      6.21840247	     18.01935692	      3.62913180	      6.96815472	     14.79727398	     -9.37462881	     11.57556638	     -0.66433406	    -16.72596504	     10.91601737	     -4.07579193	     -8.05045776
      4.17500000	    -10.76940990	      1.49023384	      1.10223370	     -0.49555294	     -0.01861151	     -0.25470489	     35.66585691	     -5.20352407	    -11.14330008	    -38.74091444	      1.05103369	      6.66828804	     17.93998809	      3.17662711	      6.82981131	     14.74360904	     -8.99637060	     11.77421819	     -0.61796821	    -16.70903077	     11.00089692	     -4.04698884	     -8.18453284
      4.18000000	    -10.67900520	      1.37516726	      1.25584489	     -0.48936742	     -0.01915619	     -0.25465448	     35.79865187	     -5.02673146	    -11.24171450	    -37.00251684	      1.70633494	      7.43859556	     17.50683254	      2.43783743	      6.64945003	     14.61775954	     -8.60958452	     12.06333287	     -0.34090661	    -16.69708910	     10.80526917	     -3.98423555	     -8.41827489
      4.18500000	    -10.78530176	      1.26291883	      1.30641804	     -0.48316905	     -0.01995729	     -0.25443008	     36.14125830	     -4.76759879	    -11.18640758	    -35.20251515	      2.19813233	      8.07889160	     17.21802735	      1.91251443	      6.46982642	     14.45560572	     -8.22339002	     12.30632641	     -0.20007355	    -16.68781802	     10.84337732	     -3.90777652	     -8.49388852
      4.19000000	    -10.73769502	      1.15567997	      1.39837433	     -0.47706961	     -0.02061909	     -0.25423622	     36.27260595	     -4.52383271	    -11.07007301	    -33.35581313	      2.78973824	      8.87046170	     16.73374844	      1.26776062	      6.29773620	     14.20493312	     -7.91599962	     12.60813924	      0.11498736	    -16.65126453	     10.67749586	     -3.84677912	     -8.69057985
      4.19500000	    -10.91851954	      1.05117657	      1.44015777	     -0.47097337	     -0.02156224	     -0.25397924	     36.64088257	     -4.24801858	    -10.85011623	    -31.45106893	      3.13932445	      9.52819294	     16.59042246	      0.87238673	      6.14093688	     14.05280219	     -7.61625620	     12.82357335	      0.18948577	    -16.61702851	     10.77564852	     -3.77430473	     -8.77156539
      4.20000000	    -10.80317506	      0.91348576	      1.47966922	     -0.46473027	     -0.02222011	     -0.25364862	     36.63024600	     -3.94825749	    -10.71357380	    -29.52657164	      3.68798043	     10.37491893	     16.11733856	      0.15431799	      5.92002419	     13.65683285	     -7.31910697	     13.15978842	      0.66025171	    -16.51818061	     10.55736818	     -3.67881138	     -8.91471840
      4.20500000	    -10.81090427	      0.76171374	      1.51321697	     -0.45855813	     -0.02302035	     -0.25329082	     36.72826681	     -3.61006040	    -10.41898188	    -27.56151912	      4.05372248	     11.08006167	     15.62196982	     -0.38857920	      5.69294719	     13.30202026	     -7.10072468	     13.50796942	      1.10815301	    -16.41370209	     10.46289479	     -3.56296859	     -9.02949089
      4.21000000	    -10.83558115	      0.61057715	      1.53928953	     -0.45230208	     -0.02389183	     -0.25291259	     36.81637279	     -3.27427369	    -10.09349272	    -25.58285291	      4.36594377	     11.71354586	     15.29531755	     -0.90902535	      5.47014342	     12.95279036	     -6.90226337	     13.83409529	      1.50671118	    -16.30752190	     10.40172081	     -3.44645332	     -9.14519058
      4.21500000	    -10.83733808	      0.43470859	      1.57296381	     -0.44605570	     -0.02475615	     -0.25253141	     36.84794976	     -2.91741677	     -9.69224897	    -23.58977908	      4.56579657	     12.22764346	     15.00445049	     -1.41843034	      5.22115851	     12.59451257	     -6.77429360	     14.19249347	      1.97162836	    -16.16747013	     10.30791238	     -3.30220437	     -9.27347682
